Well, turns out there was some kinda problem with the subs not uploading and everyone "stuck" at 99.8%- again. Hopefully this upload solves the problem.

651MB for the full Death Race Trilogy- the most artistic and well written trilogy EVAR. Welcome to the Recapstore.

Subs included for Death Race 1 and 2. Please seed to at least a 1.5 ratio!

(Wikipedia) The Death Race series is a car combat franchise encompassing a series of films and other media centered around a reality show set in a prison, where inmates race against each other in order to win their freedom.

Sample mediainfo from Death Race (2008):

Format                                   : MPEG-4
Format profile                           : Base Media / Version 2
Codec ID                                 : mp42
File size                                : 187 MiB
Duration                                 : 1h 50mn
Overall bit rate mode                    : Variable
Overall bit rate                         : 236 Kbps
Encoded date                             : UTC 2012-11-21 14:28:54
Tagged date                              : UTC 2012-11-21 15:55:12
Writing application                      : HandBrake 0.9.8 2012071700

Video
ID                                       : 1
Format                                   : AVC
Format/Info                              : Advanced Video Codec
Format profile                           : High@L2.1
Format settings, CABAC                   : Yes
Format settings, ReFrames                : 15 frames
Codec ID                                 : avc1
Codec ID/Info                            : Advanced Video Coding
Duration                                 : 1h 50mn
Bit rate mode                            : Variable
Bit rate                                 : 167 Kbps
Width                                    : 352 pixels
Height                                   : 144 pixels
Display aspect ratio                     : 2.35:1
Original display aspect ratio            : 2.35:1
Frame rate mode                          : Variable
Frame rate                               : 23.976 fps
Minimum frame rate                       : 7.992 fps
Maximum frame rate                       : 23.981 fps
Color space                              : YUV
Chroma subsampling                       : 4:2:0
Bit depth                                : 8 bits
Scan type                                : Progressive
Bits/(Pixel*Frame)                       : 0.137
Stream size                              : 132 MiB (71%)
Writing library                          : x264 core 120
Encoding settings                        : cabac=1 / ref=16 / deblock=1:2:2 / analyse=0x3:0x133 / me=tesa / subme=10 / psy=1 / psy_rd=1.20:0.20 / mixed_ref=1 / me_range=16 / chroma_me=1 / trellis=2 / 8x8dct=1 / cqm=0 / deadzone=21,11 / fast_pskip=1 / chroma_qp_offset=-3 / threads=6 / sliced_threads=0 / nr=0 / decimate=1 / interlaced=0 / bluray_compat=0 / constrained_intra=0 / bframes=16 / b_pyramid=1 / b_adapt=2 / b_bias=0 / direct=1 / weightb=1 / open_gop=0 / weightp=2 / keyint=240 / keyint_min=24 / scenecut=40 / intra_refresh=0 / rc_lookahead=40 / rc=crf / mbtree=1 / crf=23.0 / qcomp=0.60 / qpmin=3 / qpmax=69 / qpstep=4 / ip_ratio=1.40 / aq=1:2.00
Encoded date                             : UTC 2012-11-21 14:28:54
Tagged date                              : UTC 2012-11-21 15:55:12
Color primaries                          : BT.709
Transfer characteristics                 : BT.709
Matrix coefficients                      : BT.709

Audio
ID                                       : 2
Format                                   : AAC
Format/Info                              : Advanced Audio Codec
Format profile                           : LC
Codec ID                                 : 40
Duration                                 : 1h 50mn
Bit rate mode                            : Variable
Bit rate                                 : 64.2 Kbps
Maximum bit rate                         : 118 Kbps
Channel(s)                               : 2 channels
Channel positions                        : Front: L R
Sampling rate                            : 48.0 KHz
Compression mode                         : Lossy
Delay relative to video                  : 167ms
Stream size                              : 50.8 MiB (27%)
Encoded date                             : UTC 2012-11-21 14:28:54
Tagged date                              : UTC 2012-11-21 15:55:09